<svg id="Layer_1" enable-background="new 0 0 512 512" viewBox="0 0 512 512" xmlns="http://www.w3.org/2000/svg"><g><g><g><path d="m254.173 106.667c29.461 0 53.333-23.872 53.333-53.333 0-29.462-23.872-53.334-53.333-53.334s-53.333 23.872-53.333 53.333c-.001 29.462 23.893 53.334 53.333 53.334z"/><path d="m405.341 128c29.461 0 53.333-23.872 53.333-53.333 0-29.44-23.872-53.333-53.333-53.333s-53.333 23.872-53.333 53.333c-.001 29.461 23.893 53.333 53.333 53.333z"/><path d="m106.674 128c29.461 0 53.333-23.872 53.333-53.333 0-29.44-23.872-53.333-53.333-53.333-29.44 0-53.333 23.893-53.333 53.333 0 29.461 23.893 53.333 53.333 53.333z"/><path d="m498.247 305.387-13.675-109.333c-3.328-26.624-26.069-46.72-52.907-46.72h-52.672c-5.931 0-11.904 1.045-17.771 3.136-5.248 1.856-8.171 7.424-6.741 12.8 1.045 3.947 2.027 7.957 2.517 12.117l14.144 123.904c1.856 16.405-3.264 32.747-14.059 44.843-2.347 2.645-5.227 5.12-9.003 7.829-3.029 2.155-4.715 5.739-4.437 9.429l8.384 117.355c.405 5.589 5.035 9.92 10.645 9.92h85.333c5.589 0 10.24-4.331 10.645-9.899l9.963-139.499c8.405-.555 16.277-4.395 21.888-10.752 6.061-6.89 8.898-16.021 7.746-25.13z"/><path d="m163.186 356.053c-4.587-2.88-8.597-6.208-11.925-9.899-10.795-12.096-15.915-28.437-14.059-44.843l14.144-123.904c.512-4.48 1.515-8.789 2.688-12.992.768-2.752.384-5.696-1.045-8.192-1.408-2.475-3.776-4.267-6.528-4.992-4.928-1.28-9.195-1.877-13.461-1.877h-52.673c-26.837 0-49.6 20.075-52.907 46.72l-13.674 109.313c-1.131 9.109 1.685 18.261 7.765 25.152 5.611 6.357 13.483 10.197 21.888 10.752l9.963 139.499c.405 5.589 5.035 9.899 10.645 9.899h85.333c5.589 0 10.24-4.331 10.645-9.899l8.213-114.923c.3-3.968-1.641-7.744-5.012-9.814z"/><path d="m349.938 303.723-14.144-123.925c-3.371-29.526-26.752-51.798-54.379-51.798h-54.464c-27.627 0-51.029 22.272-54.379 51.797l-14.144 123.904c-1.195 10.368 2.005 20.651 8.768 28.245 5.824 6.528 13.547 10.304 21.909 10.773l11.776 159.403c.405 5.547 5.056 9.877 10.645 9.877h85.333c5.589 0 10.219-4.309 10.645-9.877l11.776-159.403c8.384-.469 16.085-4.267 21.909-10.773 6.744-7.551 9.922-17.877 8.749-28.223z"/></g></g></g><g/><g/><g/><g/><g/><g/><g/><g/><g/><g/><g/><g/><g/><g/><g/></svg>