<svg id="Layer_1" enable-background="new 0 0 512.836 512.836" viewBox="0 0 512.836 512.836" xmlns="http://www.w3.org/2000/svg"><g><g><g><path d="m96.025 107.084c29.461 0 53.333-23.872 53.333-53.333s-23.872-53.333-53.333-53.333-53.333 23.872-53.333 53.333c-.001 29.461 23.871 53.333 53.333 53.333z"/><path d="m510.852 224.14c-3.2-25.515-29.269-42.901-54.251-33.408-8.853 3.413-19.691-1.749-23.787-11.115-4.971-11.413-11.115-22.315-18.197-32.448-6.315-8.981-5.141-20.757 2.667-27.349 9.429-7.979 14.699-19.691 14.464-32.171-.256-12.651-6.101-24.341-16.043-32.064-16.32-12.672-34.112-23.211-52.885-31.317-5.12-2.219-10.517-3.349-16.021-3.349-19.797 0-36.501 14.336-39.701 34.091-1.643 10.155-10.539 17.088-21.419 15.893-11.947-1.28-24.341-1.28-36.352 0-10.475 1.237-19.733-5.739-21.397-15.915-3.157-19.648-19.84-33.92-39.573-33.92-4.48 0-8.896.747-13.163 2.219-5.227 1.792-8.235 7.296-6.891 12.651 1.643 6.656 2.411 12.309 2.411 17.813 0 4.864-.64 9.941-2.069 16-.192.832-.277 1.664-.277 2.496l.469 46.4c.043 3.008 1.344 5.867 3.584 7.851 14.763 13.141 24.149 31.36 26.411 51.307l1.259 10.944c.469 4.032 3.179 7.467 6.997 8.832 3.883 1.344 8.107.448 11.029-2.368 16.064-15.573 37.099-24.128 59.243-24.128 47.061 0 85.333 38.272 85.333 85.333s-38.272 85.333-85.333 85.333c-18.475 0-36.288-6.144-51.52-17.771-2.709-2.048-6.187-2.709-9.408-1.771-3.243.917-5.845 3.328-7.04 6.485-2.667 7.061-6.165 13.056-10.432 17.835-3.755 4.203-8.085 7.765-12.885 10.624-3.008 1.771-4.928 4.907-5.205 8.405l-8.363 113.6c0 5.184 3.712 9.6 8.811 10.496 2.304.427 4.651.619 6.933.619 19.797 0 36.48-14.336 39.68-34.069 1.664-10.176 10.603-17.003 21.419-15.915 11.989 1.28 24.384 1.28 36.352 0 10.56-1.109 19.755 5.739 21.397 15.915 3.2 19.733 19.925 34.069 39.701 34.069 5.504 0 10.901-1.131 16.021-3.349 18.795-8.107 36.587-18.645 52.885-31.317 9.941-7.723 15.787-19.413 16.043-32.064.256-12.48-5.013-24.213-14.464-32.171-7.808-6.613-8.981-18.368-2.667-27.371 7.083-10.112 13.205-21.013 18.197-32.427 4.096-9.387 14.144-14.827 24.021-11.029 23.787 9.088 50.816-7.957 54.016-33.472 1.323-10.368 1.984-20.971 1.984-31.488 0-10.495-.662-21.098-1.984-31.445z"/><path d="m183.001 332.364c6.784-7.552 9.963-17.877 8.789-28.224l-14.144-123.925c-3.349-29.525-26.752-51.797-54.4-51.797h-54.464c-27.648 0-51.051 22.272-54.4 51.819l-14.144 123.903c-1.173 10.368 2.027 20.651 8.768 28.224 5.803 6.528 13.547 10.304 21.909 10.773l11.776 159.403c.427 5.547 5.056 9.877 10.645 9.877h85.333c5.589 0 10.219-4.309 10.645-9.877l11.776-159.403c8.385-.469 16.108-4.266 21.911-10.773z"/></g></g></g><g/><g/><g/><g/><g/><g/><g/><g/><g/><g/><g/><g/><g/><g/><g/></svg>