<?xml version="1.0" encoding="UTF-8" standalone="no"?>
<svg
   xmlns:dc="http://purl.org/dc/elements/1.1/"
   xmlns:cc="http://creativecommons.org/ns#"
   xmlns:rdf="http://www.w3.org/1999/02/22-rdf-syntax-ns#"
   xmlns:svg="http://www.w3.org/2000/svg"
   xmlns="http://www.w3.org/2000/svg"
   xmlns:sodipodi="http://sodipodi.sourceforge.net/DTD/sodipodi-0.dtd"
   xmlns:inkscape="http://www.inkscape.org/namespaces/inkscape"
   version="1.0"
   width="200pt"
   height="200pt"
   viewBox="0 0 200 200"
   preserveAspectRatio="xMidYMid meet"
   id="svg42"
   sodipodi:docname="lah.svg"
   inkscape:version="0.92.4 (5da689c313, 2019-01-14)">
  <defs
     id="defs46" />
  <sodipodi:namedview
     pagecolor="#ffffff"
     bordercolor="#666666"
     borderopacity="1"
     objecttolerance="10"
     gridtolerance="10"
     guidetolerance="10"
     inkscape:pageopacity="0"
     inkscape:pageshadow="2"
     inkscape:window-width="1366"
     inkscape:window-height="705"
     id="namedview44"
     showgrid="false"
     inkscape:zoom="1.0517471"
     inkscape:cx="259.79559"
     inkscape:cy="172.84468"
     inkscape:window-x="1358"
     inkscape:window-y="-8"
     inkscape:window-maximized="1"
     inkscape:current-layer="svg42" />
  <metadata
     id="metadata2">
Created by potrace 1.16, written by Peter Selinger 2001-2019
<rdf:RDF>
  <cc:Work
     rdf:about="">
    <dc:format>image/svg+xml</dc:format>
    <dc:type
       rdf:resource="http://purl.org/dc/dcmitype/StillImage" />
    <dc:title></dc:title>
  </cc:Work>
</rdf:RDF>
</metadata>
  <g
     id="g874"
     transform="matrix(0.8016381,0,0,0.8016381,-65.40842,-20.119903)">
    <path
       d="m 211.1,31.1 c -33.2,6.5 -62.6,33.9 -71,66.3 -3,11.5 -2.8,14.3 2.5,26.5 5.3,12.3 15.4,32.4 16,31.8 0.2,-0.2 -0.1,-3 -0.7,-6.3 -2.9,-15.7 2.8,-29.8 16.8,-41.5 6.7,-5.6 29.4,-16.5 52.3,-25.3 32.1,-12.2 40.3,-16.5 43.4,-22.9 2.3,-5 1.2,-8.3 -4.9,-14.2 C 252.9,33.2 230.6,27.3 211.1,31.1 Z"
       id="path4"
       inkscape:connector-curvature="0"
       style="fill:#000000;stroke:none;stroke-width:0.1" />
    <path
       d="M 103.4,81.2 C 90.4,91.3 83,113.5 86,133.3 c 3.1,20.3 12.1,37 28.3,52.3 17.2,16.2 36.6,24.4 58.2,24.4 18.2,0 30.1,-4.7 42.9,-17.1 4.5,-4.2 7.8,-8 7.5,-8.3 -0.3,-0.3 -3.2,0.3 -6.5,1.5 -9,3.2 -24.2,3.7 -31.7,1.1 -17.1,-6.1 -26.9,-19.6 -46.3,-63.7 -12.6,-28.8 -15.8,-34.9 -21.1,-40.3 -5,-5 -9.2,-5.6 -13.9,-2 z"
       id="path6"
       inkscape:connector-curvature="0"
       style="fill:#000000;stroke:none;stroke-width:0.1" />
    <path
       d="m 239.3,126.2 c 5.5,12.8 6.8,16.5 7.6,21.9 1.9,13.9 -2.7,26.4 -13.9,37.7 -8.4,8.5 -20.1,16.8 -41.5,29.5 -22.9,13.5 -33.2,20.5 -38.2,26 -3.6,3.9 -4.3,5.3 -4.3,8.6 0,3.3 0.7,4.6 3.7,7.6 8.4,8.2 24.5,13.1 39.4,12.1 19.6,-1.3 38.1,-10.5 53.4,-26.7 11.7,-12.4 19.5,-26.1 23.7,-41.7 2.5,-9.4 2.9,-27.9 0.9,-36.2 -3.5,-14.2 -11.3,-26.1 -22.7,-34.7 -7.2,-5.4 -9.1,-6.3 -8.1,-4.1 z"
       id="path8"
       inkscape:connector-curvature="0"
       style="fill:#000000;stroke:none;stroke-width:0.1" />
  </g>
</svg>
